# Blender OBJ File: models.blend
# www.blender.org
mtllib blast.mtl
o Plane.002_Plane.002
v 0.000000 0.000000 2.000000
v 0.000000 -0.000000 -0.000000
v 0.500000 0.000000 -0.000000
v 1.000000 0.000001 2.000000
v 0.000000 0.500000 -0.000000
v 0.000000 1.000000 2.000000
v -0.500000 0.000000 0.000000
v -1.000000 0.000000 2.000000
v 0.000000 -0.500000 0.000000
v 0.000000 -1.000000 2.000000
vn -0.000000 1.000000 -0.000000
vn 1.000000 0.000000 -0.000000
vn 0.000000 -1.000000 0.000000
vn -1.000000 0.000000 0.000000
usemtl (null)
s off
f 1//1 4//1 3//1 2//1
f 1//2 2//2 5//2 6//2
f 2//3 1//3 8//3 7//3
f 1//4 2//4 9//4 10//4
