# Blender OBJ File: models.blend
# www.blender.org
mtllib laser.mtl
o Plane.001_Cube
v 0.200000 -0.000000 -0.200000
v 0.100000 -1.000000 -0.100000
v -0.100000 -1.000000 -0.100000
v -0.200000 0.000000 -0.200000
v 0.200000 -0.000000 0.200000
v 0.100000 -1.000000 0.100000
v -0.100000 -1.000000 0.100000
v -0.200000 -0.000000 0.200000
v -0.100000 0.200000 0.100000
v 0.100000 0.200000 0.100000
v -0.100000 0.200000 -0.100000
v 0.100000 0.200000 -0.100000
vn -0.000000 -0.099504 -0.995037
vn -0.000000 -0.099504 0.995037
vn 0.995037 -0.099504 -0.000000
vn -0.000000 -1.000000 -0.000000
vn -0.995037 -0.099504 -0.000000
vn -0.894427 0.447214 0.000000
vn 0.894427 0.447213 -0.000000
vn 0.000000 0.447213 0.894427
vn 0.000000 0.447214 -0.894427
vn 0.000000 1.000000 0.000000
usemtl (null)
s off
f 1//1 2//1 3//1 4//1
f 5//2 8//2 7//2 6//2
f 1//3 5//3 6//3 2//3
f 2//4 6//4 7//4 3//4
f 3//5 7//5 8//5 4//5
f 4//6 8//6 9//6 11//6
f 5//7 1//7 12//7 10//7
f 8//8 5//8 10//8 9//8
f 1//9 4//9 11//9 12//9
f 11//10 9//10 10//10 12//10
