# Blender OBJ File: models.blend
# www.blender.org
mtllib player.mtl
o Plane_Plane
v 1.000000 1.000000 -0.000000
v 1.000000 -1.000000 0.000000
v -1.000000 -1.000000 0.000000
v -1.000000 1.000000 -0.000000
v 0.300000 3.000000 0.100000
v -0.300000 3.000000 0.100000
v 4.000000 -1.000000 -0.200000
v 4.000000 -2.000000 -0.200000
v -4.000000 -2.000000 -0.200000
v -4.000000 -1.000000 -0.200000
v 0.300000 -2.000000 0.300000
v -0.300000 -2.000000 0.300000
v -0.300000 2.800000 0.400000
v 0.300000 2.800000 0.400000
v 1.000000 1.000000 0.600000
v -1.000000 1.000000 0.600000
v -1.000000 -1.000000 0.600000
v 1.000000 -1.000000 0.600000
vn 0.000000 -0.049938 0.998752
vn 0.066519 0.000000 0.997785
vn -0.066519 0.000000 0.997785
vn 0.000000 0.287348 0.957826
vn -0.000000 -0.832050 -0.554700
vn 0.000000 -0.110432 -0.993884
vn -0.000000 0.000000 1.000000
vn 0.000000 0.000000 1.000000
vn 0.934899 -0.346463 -0.076992
vn -0.934899 -0.346463 -0.076992
vn 0.554700 -0.832050 0.000000
vn -0.316228 0.948683 0.000000
vn -0.554700 -0.832050 0.000000
vn 0.316228 0.948683 -0.000000
vn -0.257663 -0.000000 -0.966235
vn 0.257663 -0.000000 -0.966235
vn 0.819232 0.573462 0.000000
vn -0.819232 0.573462 0.000000
vn 0.000000 0.287348 -0.957826
usemtl (null)
s off
f 4//1 1//1 5//1 6//1
f 1//2 2//2 8//2 7//2
f 3//3 4//3 10//3 9//3
f 2//4 3//4 12//4 11//4
f 6//5 5//5 14//5 13//5
f 13//6 14//6 15//6 16//6
f 15//7 16//7 17//7 18//7
f 1//8 4//8 3//8 2//8
f 4//9 6//9 13//9 16//9
f 1//10 15//10 14//10 5//10
f 4//11 16//11 10//11
f 3//12 9//12 17//12
f 1//13 7//13 15//13
f 2//14 18//14 8//14
f 8//15 18//15 15//15 7//15
f 10//16 16//16 17//16 9//16
f 3//17 17//17 12//17
f 2//18 11//18 18//18
f 12//19 17//19 18//19 11//19
