# Blender OBJ File: models.blend
# www.blender.org
mtllib ufo.mtl
o Plane.003_Plane.001
v 1.000000 1.000000 0.000000
v 1.000000 -1.000000 0.000000
v -1.000000 -1.000000 0.000000
v -1.000000 1.000000 0.000000
v -1.999999 2.000001 0.500000
v -2.000000 -2.000000 0.500000
v 2.000000 -2.000000 0.500000
v 2.000000 2.000000 0.500000
v 1.000000 1.000000 1.000000
v 1.000000 -1.000000 1.000000
v -1.000000 -1.000000 1.000000
v -1.000000 1.000000 1.000000
vn 0.000000 0.000000 1.000000
vn 0.447214 -0.000000 0.894427
vn -0.000000 -0.447214 0.894427
vn -0.447214 0.000000 0.894427
vn 0.000000 0.447214 0.894427
vn 0.000000 0.447214 -0.894427
vn -0.447214 0.000000 -0.894427
vn -0.000000 -0.447214 -0.894427
vn 0.447214 -0.000000 -0.894427
vn 0.000000 0.000000 -1.000000
usemtl (null)
s off
f 1//1 4//1 3//1 2//1
f 3//2 4//2 5//2 6//2
f 4//3 1//3 8//3 5//3
f 1//4 2//4 7//4 8//4
f 2//5 3//5 6//5 7//5
f 7//6 6//6 11//6 10//6
f 8//7 7//7 10//7 9//7
f 5//8 8//8 9//8 12//8
f 6//9 5//9 12//9 11//9
f 9//10 10//10 11//10 12//10
